<?xml version="1.0" standalone="no"?>
<!DOCTYPE svg PUBLIC "-//W3C//DTD SVG 1.1//EN" "http://www.w3.org/Graphics/SVG/1.1/DTD/svg11.dtd" >
<svg xmlns="http://www.w3.org/2000/svg">
<metadata>Generated by IcoMoon</metadata>
<defs>
<font id="icomoon" horiz-adv-x="1024">
<font-face units-per-em="1024" ascent="960" descent="-64" />
<missing-glyph horiz-adv-x="1024" />
<glyph unicode="&#x20;" horiz-adv-x="512" d="" />
<glyph unicode="&#xe900;" glyph-name="arrow" horiz-adv-x="1792" d="M1709.261 402.746c24.986 24.993 24.986 65.516 0 90.509l-407.296 407.294c-24.997 24.994-65.519 24.994-90.513 0s-24.995-65.516 0-90.509l362.039-362.039-362.039-362.039c-24.995-24.993-24.995-65.516 0-90.509 24.993-24.995 65.516-24.995 90.513 0l407.296 407.293zM0 384h1664v128h-1664v-128z" />
<glyph unicode="&#xe901;" glyph-name="service1" d="M304.569 618.456c13.152 0 23.814 10.662 23.814 23.814v214.325c0 13.152-10.662 23.814-23.814 23.814s-23.814-10.662-23.814-23.814v-190.511h-190.512c-13.152 0-23.814-10.662-23.814-23.814s10.662-23.814 23.814-23.814h214.326zM6.975 906.184l280.755-280.754 33.678 33.678-280.754 280.754-33.678-33.678zM304.569 275.032c13.152 0 23.814-10.662 23.814-23.814v-214.326c0-13.15-10.662-23.814-23.814-23.814s-23.814 10.664-23.814 23.814v190.512h-190.512c-13.152 0-23.814 10.664-23.814 23.814 0 13.152 10.662 23.814 23.814 23.814h214.326zM6.975-12.695l280.755 280.752 33.678-33.678-280.754-280.752-33.678 33.678zM725.687 618.456c-13.152 0-23.814 10.662-23.814 23.814v214.325c0 13.152 10.662 23.814 23.814 23.814s23.814-10.662 23.814-23.814v-190.511h190.512c13.152 0 23.814-10.662 23.814-23.814s-10.662-23.814-23.814-23.814h-214.326zM1023.281 906.184l-280.755-280.754-33.678 33.678 280.755 280.754 33.678-33.678zM725.687 275.032c-13.152 0-23.814-10.662-23.814-23.814v-214.326c0-13.15 10.662-23.814 23.814-23.814s23.814 10.664 23.814 23.814v190.512h190.512c13.152 0 23.814 10.664 23.814 23.814 0 13.152-10.662 23.814-23.814 23.814h-214.326zM1023.281-12.695l-280.755 280.752-33.678-33.678 280.755-280.752 33.678 33.678z" />
<glyph unicode="&#xe902;" glyph-name="service2" horiz-adv-x="1099" d="M973.469 589.447c-59.512 178.974-228.325 308.041-427.285 308.041-198.958 0-367.773-129.067-427.283-308.041h-52.364c61.244 206.978 252.809 357.992 479.648 357.992s418.404-151.015 479.649-357.992h-52.364zM546.809-52.833h-1.249c0.21 0 0.417 0 0.624 0 0.21 0 0.417 0 0.624 0zM119.458 308.259c59.51-178.973 228.325-308.039 427.283-308.039 198.961 0 367.776 129.066 427.285 308.039h52.364c-61.243-206.975-252.811-357.99-479.649-357.99-226.836 0-418.403 151.015-479.647 357.99h52.364zM546.119 950.541h1.246c-0.207 0-0.415 0-0.624 0-0.207 0-0.415 0-0.622 0zM49.43 808.528c-2.804 13.506-16.026 22.181-29.531 19.377s-22.181-16.025-19.377-29.531l48.908 10.154zM73.134 571.492l-24.454-5.078c2.804-13.507 16.026-22.181 29.531-19.379l-5.077 24.456zM315.325 596.265c13.507 2.805 22.183 16.024 19.379 29.531-2.805 13.504-16.027 22.181-29.531 19.376l10.153-48.907zM0.521 798.374l48.158-231.96 48.908 10.153-48.158 231.961-48.908-10.154zM78.211 547.036l237.114 49.229-10.153 48.907-237.115-49.227 10.154-48.91zM1043.496 89.178c2.805-13.504 16.027-22.181 29.531-19.376 13.507 2.805 22.183 16.027 19.379 29.531l-48.91-10.155zM1019.794 326.216l24.454 5.078c-2.805 13.504-16.027 22.181-29.531 19.376l5.078-24.454zM777.601 301.443c-13.504-2.805-22.181-16.027-19.376-29.531 2.802-13.507 16.024-22.181 29.531-19.379l-10.155 48.91zM1092.406 99.333l-48.158 231.961-48.91-10.155 48.158-231.961 48.91 10.155zM1014.717 350.67l-237.116-49.227 10.155-48.91 237.113 49.229-10.153 48.907z" />
<glyph unicode="&#xe903;" glyph-name="service3" horiz-adv-x="878" d="M0 960v-1008.19h48.762v1008.19h-48.762zM813.952 725.095v-778.19h48.762v778.19h-48.762zM33.762 876.905l-15.762-46.143 740.143-252.619-739.19-219.714 13.857-46.762 812.476 241.524c10.143 3.106 17.391 12.386 17.391 23.359 0 10.639-6.814 19.687-16.316 23.017l-0.171 0.052-812.429 277.286zM34.048 358l-16.333-45.952 812.429-288.762 16.333 45.952-812.429 288.762z" />
<glyph unicode="&#xe904;" glyph-name="eya" horiz-adv-x="1638" d="M1627.725 479.632c-14.633 19.618-363.32 480.368-808.663 480.368-445.342 0-794.048-460.75-808.667-480.35-13.86-18.612-13.86-43.856 0-62.468 14.619-19.62 363.325-480.369 808.667-480.369s794.030 460.754 808.663 480.353c13.88 18.611 13.88 43.871 0 62.465zM819.062 42.66c-328.041 0-612.16 305.812-696.265 405.784 83.997 100.061 367.52 405.71 696.265 405.71 328.023 0 612.122-305.756 696.264-405.783-83.994-100.058-367.519-405.711-696.264-405.711zM819.077 765.95c-178.662 0-324.027-142.452-324.027-317.542 0-175.087 145.364-317.541 324.027-317.541 178.668 0 324.029 142.454 324.029 317.541 0 175.090-145.362 317.542-324.029 317.542zM819.077 236.718c-119.117 0-216.013 94.961-216.013 211.69s96.901 211.693 216.013 211.693c119.117 0 216.018-94.963 216.018-211.693s-96.901-211.69-216.018-211.69z" />
<glyph unicode="&#xe905;" glyph-name="mail" horiz-adv-x="1434" d="M749.098 305.844c-18.864-15.447-46.004-15.447-64.868 0l-684.23 563.706v-882.371c0-28.278 22.923-51.199 51.2-51.199h1331.189c28.273 0 51.2 22.921 51.2 51.199v874.794l-684.492-556.128zM1382.38 960h-1331.18l665.594-548.244 673.122 546.708c-2.468 0.72-4.987 1.233-7.537 1.536z" />
<glyph unicode="&#xe906;" glyph-name="service6" d="M23.273 936.727v-302.545h46.545v256h256v46.545h-302.545zM23.273 261.818v-302.545h302.545v46.545h-256v256h-46.545zM698.182 936.727v-46.545h256v-256h46.545v302.545h-302.545zM954.182 261.818v-256h-256v-46.545h302.545v302.545h-46.545zM325.818 634.182v-372.364h372.364v372.364h-372.364zM372.364 587.636h279.273v-279.273h-279.273v279.273z" />
<glyph unicode="&#xe907;" glyph-name="service5" d="M512 874.667c-235.389 0-426.667-191.278-426.667-426.667s191.278-426.667 426.667-426.667c235.389 0 426.667 191.278 426.667 426.667s-191.278 426.667-426.667 426.667zM512 832c212.33 0 384-171.67 384-384s-171.67-384-384-384c-212.33 0-384 171.67-384 384s171.67 384 384 384zM512 618.667c-94.004 0-170.667-76.663-170.667-170.667s76.663-170.667 170.667-170.667c94.004 0 170.667 76.663 170.667 170.667s-76.663 170.667-170.667 170.667zM512 576c70.945 0 128-57.055 128-128s-57.055-128-128-128c-70.945 0-128 57.055-128 128s57.055 128 128 128zM490.667 960v-85.333h42.667v85.333h-42.667zM490.667 21.333v-85.333h42.667v85.333h-42.667zM0 469.333v-42.667h85.333v42.667h-85.333zM938.667 469.333v-42.667h85.333v42.667h-85.333z" />
<glyph unicode="&#xe908;" glyph-name="search" d="M1011.497 8.836l-291.201 291.196c56.408 69.676 90.37 158.208 90.37 254.635 0 223.488-181.848 405.333-405.335 405.333s-405.331-181.843-405.331-405.331c0-223.488 181.846-405.335 405.333-405.335 96.427 0 184.959 33.963 254.635 90.37l291.196-291.201c8.324-8.319 19.241-12.503 30.169-12.503 10.923 0 21.845 4.184 30.164 12.503 16.681 16.681 16.681 43.652 0 60.333zM405.333 234.672c-176.47 0-320 143.526-320 319.997 0 176.47 143.53 320 320 320s320-143.53 320-320c0-176.471-143.531-319.997-320-319.997z" />
<glyph unicode="&#xe909;" glyph-name="phone" d="M943.16 285.776c-62.392-0.121-124.4 9.742-183.676 29.212-27.716 9.679-58.511 3.158-79.925-16.924l-116.304-87.741c-124.904 62.711-226.249 164.036-288.983 288.93l85.423 113.502c21.567 21.582 29.28 53.396 19.996 82.459-19.544 59.356-29.46 121.456-29.374 183.944 0 44.648-36.195 80.842-80.842 80.842h-188.633c-44.648 0-80.842-36.195-80.842-80.842 0.594-520.646 422.512-942.562 943.16-943.158 44.646 0 80.84 36.194 80.84 80.84v188.094c0 44.647-36.194 80.842-80.84 80.842z" />
<glyph unicode="&#xe90a;" glyph-name="location" horiz-adv-x="819" d="M397.025-45.793c0 0-397.025 389.498-397.025 608.769s177.754 397.025 397.025 397.025c219.27 0 397.026-177.754 397.026-397.025s-397.026-608.769-397.026-608.769zM498.626 747.348c-58.922 33.397-131.054 33.397-189.976 0-58.384-34.329-94.45-96.797-94.988-164.524 0.539-67.727 36.605-130.195 94.988-164.524 58.922-33.397 131.054-33.397 189.976 0 58.384 34.329 94.45 96.797 94.988 164.524-0.539 67.727-36.605 130.195-94.988 164.524z" />
<glyph unicode="&#xe90b;" glyph-name="service4" horiz-adv-x="1202" d="M89.043 470.261l-11.798 18.877-65.821-41.138h77.619v22.261zM1113.043 470.261l12.346-18.521 61.177 40.782h-73.523v-22.261zM789.593 934.355l-712.348-445.217 23.597-37.754 712.348 445.217-23.597 37.754zM89.043 448h1024v44.522h-1024v-44.522zM1100.698 488.782l-734.611-489.739 24.696-37.042 734.606 489.739-24.692 37.042z" />
<glyph unicode="&#xe90c;" glyph-name="Arrow-47" horiz-adv-x="3072" d="M18.745 493.255c-24.993-24.993-24.993-65.516 0-90.509l407.293-407.296c24.994-24.992 65.516-24.992 90.51 0 24.993 24.998 24.993 65.517 0 90.509l-362.038 362.042 362.038 362.039c24.993 24.993 24.993 65.516 0 90.51s-65.516 24.994-90.51 0l-407.293-407.294zM3072 512h-3008v-128h3008v128z" />
<glyph unicode="&#xe90d;" glyph-name="callback1" horiz-adv-x="1100" d="M993.229 182.752l-291.489 105.912v44.129c30.623 22.723 77.68 75.114 88.324 192.106 5.073 30.733 15.57 60.306 30.997 87.321 8.321 13.265 12.724 28.634 12.698 44.318v136.708c-3.036 19.748-10.904 38.427-22.9 54.358-11.994 15.931-27.739 28.613-45.816 36.907 2.308 13.349 0.347 27.090-5.602 39.247-5.774 10.107-13.875 18.673-23.624 24.979-9.747 6.306-20.857 10.169-32.396 11.263h-252.088c-48.816-0.050-95.619-19.573-130.137-54.286s-53.933-81.78-53.982-130.871v-98.775c-0.032-25.587 8.594-50.421 24.462-70.421 11.537-15.205 18.066-33.652 18.673-52.768v-29.857c0-5.446 4.109-131.451 88.138-193.045v-41.688l-291.488-105.912c-21.442-7.784-40.431-21.182-55.005-38.81s-24.207-38.848-27.904-61.468l-24.088-145.911h37.346l22.968 139.713c2.678 16.058 9.553 31.113 19.922 43.619 10.369 12.508 23.858 22.016 39.085 27.553l189.346 68.542-40.894-82.627c-1.377-2.822-2.027-5.949-1.891-9.091 0.137-3.14 1.056-6.197 2.672-8.89 1.618-2.691 3.882-4.93 6.582-6.514 2.702-1.583 5.757-2.459 8.882-2.547h47.057l-12.138-23.285c-1.906-3.666-2.554-7.862-1.845-11.937s2.736-7.799 5.767-10.597l134.074-123.377h81.789l-12.324 22.346 20.353 129.011c0.804 4.786-0.267 9.698-2.989 13.708l-15.684 22.534 22.221 30.422 22.409-30.798-15.313-22.158c-2.786-3.984-3.923-8.897-3.174-13.708l20.167-128.448-12.512-22.909h81.789l134.074 123.377c3.030 2.797 5.057 6.521 5.767 10.597s0.061 8.272-1.845 11.937l-12.138 23.285h47.057c3.125 0.087 6.18 0.963 8.882 2.547 2.7 1.583 4.965 3.823 6.582 6.514 1.616 2.693 2.535 5.75 2.672 8.89 0.137 3.142-0.514 6.269-1.891 9.091l-40.894 82.627 188.598-68.731c15.227-5.535 28.718-15.045 39.086-27.551s17.245-27.561 19.922-43.619l22.968-139.713h37.346l-24.089 145.911c-3.571 22.68-13.105 43.988-27.618 61.719-14.51 17.73-33.472 31.238-54.917 39.122zM311.095 689.776c-0.091-0.624-0.091-1.255 0-1.879-0.091-0.747-0.091-1.504 0-2.253v-37.558c-4.151 9.47-6.313 19.699-6.349 30.047v97.085c0.099 39.148 15.62 76.661 43.163 104.326s64.867 43.225 103.796 43.274h247.793c5.408-0.592 10.636-2.298 15.358-5.012 4.724-2.714 8.839-6.378 12.091-10.762 3.292-8.645 3.292-18.208 0-26.853-1.164-2.497-1.769-5.222-1.769-7.981s0.605-5.484 1.769-7.981c1.185-2.499 2.903-4.705 5.035-6.458 2.13-1.753 4.619-3.011 7.291-3.683 14.886-3.977 28.317-12.186 38.683-23.643s17.228-25.677 19.763-40.955v-132.952c-0.087-8.469-2.406-16.763-6.722-24.037v50.515c0 0 0 1.502 0 2.065-3.245 20.878-12.062 40.482-25.511 56.718-13.45 16.238-31.029 28.501-50.862 35.485l-86.83 30.609-3.922 0.939c-3.664 1.203-7.409 2.144-11.203 2.817h-6.537c-2.86 0.194-5.729 0.194-8.59 0-4.066-0.096-8.122-0.472-12.136-1.127h-4.109c-5.363-0.978-10.617-2.487-15.684-4.507-24.836-9.389-44.070-16.337-56.020-20.093-5.31-1.725-10.853-2.612-16.431-2.629h-85.898c-23.647-4.044-45.511-15.228-62.688-32.066-17.177-16.839-28.854-38.533-33.479-62.204v0.753zM348.443 524.899v157.929c0 3.004 1.866 5.257 2.801 8.074 0.933 2.816 2.054 6.76 3.36 9.576 1.646 3.753 3.647 7.337 5.975 10.705 0 1.126 1.308 2.628 2.056 3.567 2.822 3.872 5.943 7.515 9.335 10.892 10.953 10.67 24.673 18.024 39.587 21.22h80.856c9.445-0.078 18.84 1.381 27.822 4.32 15.313 4.883 39.773 14.084 57.513 20.844 12.047 4.503 25.3 4.503 37.348 0l85.897-30.61c13.168-4.553 24.906-12.527 34.021-23.114 9.117-10.585 15.288-23.408 17.89-37.166v-153.609c-10.083-111.544-57.327-154.736-77.306-169.007l-2.056-1.502h-1.119c-10.672-7.314-20.842-15.345-30.437-24.037-12.988-13.164-28.566-23.455-45.737-30.214s-35.556-9.836-53.978-9.034c-1.113 0.186-2.249 0.186-3.362 0-19.794 0-56.018 17.84-93.366 47.699-5.787 4.506-11.577 8.825-17.552 12.768-0.432 0.087-0.876 0.087-1.307 0-73.76 51.079-78.615 165.253-78.802 169.948l0.561 0.751zM359.086 78.529l19.606 37.558c1.462 2.837 2.181 6.002 2.086 9.197-0.093 3.193-0.996 6.311-2.623 9.057s-3.923 5.027-6.673 6.631c-2.748 1.602-5.858 2.475-9.036 2.532h-47.616l32.677 65.913 90.192-164.877 42.949-78.306-121.562 112.295zM497.641 13.181l-21.661 39.621 29.317 40.186 4.109-5.82-11.765-73.988zM492.599 138.809l-1.868-2.441-34.357-47.134-83.469 150.228 42.014 15.212 108.864-73.049-31.185-42.816zM550.859 209.605l-114.093 76.616v17.089l8.217-6.009 2.054-1.314c4.295-3.006 8.776-6.009 13.445-8.827l2.615-1.69c3.734-2.253 7.468-4.506 11.389-6.573l4.856-2.441c3.174-1.877 6.535-3.381 9.897-5.071l5.414-2.441 9.711-3.757 5.228-1.877c3.548-1.126 6.91-2.065 10.456-2.818l4.483-0.939c4.672-0.954 9.425-1.458 14.192-1.502h4.107c5.035-0.364 10.090-0.364 15.125 0h1.682l10.268 1.126h1.868c8.514 1.253 16.936 3.072 25.209 5.446h2.241c4.667 1.69 9.335 3.381 14.19 5.634l2.241 1.69c5.19 2.331 10.24 4.965 15.125 7.887 5.774 3.256 11.327 6.895 16.619 10.892l2.989 2.065c4.731 3.381 9.398 7.136 14.004 11.268v-18.779l-113.533-75.677zM686.241 255.425l42.014-15.212-82.722-151.167-68.159 93.142 108.866 73.237zM592.875 86.416l3.92 5.446 29.131-39.811-21.474-39.060-11.577 73.425zM739.459 142.753c-3.176-0.057-6.288-0.929-9.036-2.532-2.75-1.604-5.046-3.886-6.673-6.631-1.625-2.746-2.53-5.863-2.623-9.057-0.095-3.195 0.624-6.36 2.086-9.197l19.608-37.558-121.376-111.734 42.761 78.495 90.192 164.877 32.677-65.913-47.616-0.751z" />
<glyph unicode="&#xe90e;" glyph-name="callback2" horiz-adv-x="1136" d="M566.745-48.925c-2.545 1.475-5.437 2.245-8.378 2.234-2.999 0.009-5.95-0.76-8.564-2.234l-20.294-12.288h58.647l-21.411 12.288zM288.217-59.725v111.709h182.456v-111.709h35.749v111.709h107.985v-111.709h35.745v111.709h182.46v-111.709h35.747v119.529c0.026 3.737-0.702 7.444-2.143 10.892-1.441 3.45-3.564 6.572-6.243 9.182-2.677 2.608-5.855 4.647-9.341 5.997s-7.211 1.981-10.947 1.856h-558.544c-3.644 0-7.252-0.719-10.616-2.113-3.366-1.393-6.425-3.437-9-6.014-2.577-2.575-4.621-5.634-6.014-8.998-1.395-3.366-2.111-6.974-2.111-10.618v-121.203h35.561c0 0-0.745 1.303-0.745 1.489zM194.381-7.782c-4.938 0-9.673-1.96-13.165-5.453-3.491-3.491-5.453-8.227-5.453-13.165v-34.816h36.491v35.561c-0.182 4.682-2.126 9.123-5.438 12.435s-7.753 5.256-12.435 5.438zM925.51-7.782c-4.939 0-9.674-1.96-13.165-5.453-3.493-3.491-5.453-8.227-5.453-13.165v-34.816h35.747v35.561c-0.169 4.561-2.007 8.901-5.165 12.197s-7.416 5.315-11.964 5.677zM35.747-61.207l2.607 46.545c1.739 30.996 12.598 60.787 31.214 85.631s44.159 43.632 73.42 54.006l209.268 87.133 15.453-15.453c25.187-25.261 55.143-45.265 88.127-58.848 32.986-13.584 68.34-20.478 104.012-20.279 7.633 0 14.895 0 22.342 0 64.238 5.005 124.55 32.882 169.984 78.569l15.267 15.453 209.268-86.575c29.169-10.26 54.669-28.89 73.311-53.559s29.601-54.285 31.509-85.147l2.607-47.476h35.747l-2.793 49.897c-2.4 37.853-15.874 74.166-38.748 104.422s-54.138 53.12-89.903 65.748l-211.316 88.064c-5.638 1.975-11.718 2.324-17.546 1.007s-11.167-4.247-15.408-8.455l-8.006-8.006-54.365 27.183v48.035c52.317 35.002 94.022 133.12 105.565 192.698 0 0 0 1.303 0 1.862l1.117 6.144c0 1.862 0 3.724 0 5.585s0 1.676 0 2.42v7.633c0 0 0 1.117 0 1.676h13.405c6.367-0.249 12.72 0.78 18.681 3.029 5.963 2.247 11.415 5.669 16.032 10.059 4.615 4.392 8.306 9.665 10.851 15.507 2.543 5.842 3.889 12.135 3.96 18.508v58.833c0.289 2.661 0.289 5.343 0 8.006 0.181 1.609 0.181 3.232 0 4.841-0.035 15.58-2.614 31.050-7.633 45.801v63.488c-0.099 54.959-21.988 107.638-60.868 146.483s-91.577 60.687-146.538 60.737h-152.297c-27.268 0.073-54.283-5.231-79.5-15.61s-48.137-25.628-67.454-44.875c-19.316-19.247-34.648-42.114-45.117-67.293s-15.87-52.175-15.894-79.442v-63.488c-5.019-14.751-7.598-30.221-7.633-45.801-0.27-1.603-0.27-3.24 0-4.841-0.289-2.662-0.289-5.345 0-8.006v-58.833c0.147-12.61 5.286-24.645 14.288-33.474 9.004-8.829 21.139-13.731 33.747-13.63h13.405c-0.091-0.68-0.091-1.368 0-2.048v-7.82c-0.084-0.681-0.084-1.368 0-2.048 0-2.234 0-4.655 0.931-6.889v-7.075l1.117-5.027c0 0 3.537-10.985 3.537-11.357 4.293-34.611 15.425-68.023 32.749-98.291s40.495-56.791 68.161-78.023v-47.476l-54.365-27.183-8.006 8.006c-4.241 4.208-9.581 7.138-15.408 8.455s-11.908 0.968-17.546-1.007l-210.758-88.064c-35.745-12.692-66.976-35.602-89.814-65.888s-36.278-66.612-38.651-104.468l-1.862-49.711h35.747zM815.663 571.811c0-3.161-1.255-6.192-3.491-8.427-2.234-2.234-5.265-3.489-8.425-3.489h-13.405v65.164h25.321v-53.248zM484.073 924.252h152.855c45.48-0.049 89.086-18.125 121.262-50.266s50.299-75.727 50.398-121.206v-6.516l-3.724 3.537c-22.1 19.368-49.699 31.347-78.941 34.257h-329.169c-29.646-2.576-57.726-14.434-80.244-33.884l-3.91-3.537v-0.931 7.447c0.147 45.397 18.274 88.888 50.409 120.954 32.137 32.066 75.666 50.097 121.065 50.146zM329.356 560.454h-12.847c-3.16 0-6.191 1.255-8.425 3.489-2.236 2.234-3.491 5.265-3.491 8.427v53.248h25.135l-0.372-65.164zM305.711 661.364c3.791 21.094 13.846 40.558 28.858 55.855l0.559 1.676 1.676 1.676 2.048 1.862 2.793 2.234c14.438 11.72 31.714 19.428 50.083 22.342h334.196c18.359-2.949 35.626-10.651 50.083-22.342l2.793-2.234 3.165-1.676 2.793-2.793c15.127-15.239 25.257-34.721 29.044-55.855l-508.090-0.745zM366.033 515.956c-0.175 1.981-0.175 3.975 0 5.958 0 2.234 0 4.468 0 6.703v97.001h388.561v-94.767c0-2.234 0-4.282 0-6.516v-8.378c-6.33-96.256-72.983-186.182-138.892-202.007h-2.234c-35.123-12.001-73.235-12.001-108.358 0-66.467 16.943-132.748 97.001-139.078 202.007zM453.725 226.257c5.949 2.16 11.078 6.116 14.68 11.318 3.603 5.204 5.498 11.398 5.427 17.726v31.651c7.075-2.949 14.355-5.375 21.783-7.261 20.523-6.060 41.729-9.501 63.116-10.24 21.174 0.75 42.179 4.064 62.557 9.868h2.234c7.65 2.033 15.174 4.519 22.528 7.447v-31.465c-0.034-6.297 1.882-12.45 5.481-17.617 3.599-5.165 8.708-9.093 14.626-11.242l41.332-21.039-7.075-5.585-7.261-5.027-1.117-0.931-7.261-4.655h-1.489l-7.447-4.282h-1.303l-7.633-4.096-8.006-3.724h-1.489l-7.82-3.351h-1.676l-8.006-3.165h-1.117l-8.006-2.607h-1.489l-8.378-2.42h-1.676l-8.378-1.862h-1.489l-8.937-1.676-8.564-1.117h-63.116l-8.937 1.303-8.937 1.676h-1.303l-8.751 2.048h-1.303l-8.751 2.607-8.937 2.979-8.564 3.165-8.564 3.724c-5.958 2.793-11.729 5.585-17.315 8.751l-8.378 4.841-10.799 1.489c-5.399 3.724-10.799 7.633-15.825 11.729l41.332 21.039z" />
<glyph unicode="&#xe90f;" glyph-name="callback3" horiz-adv-x="933" d="M32.549-45.59l7.68 40.594c4.206 31.817 23.771 120.869 64.914 151.406 13.113 8.66 27.010 16.068 41.509 22.126v-140.434c-23.954-8.777-54.857-15.177-54.857-66.926v-6.766h32.366v6.4c0 49.006 36.571 37.669 40.229 38.4 3.877 0.534 7.427 2.461 9.985 5.424s3.949 6.755 3.912 10.668v166.583c18.286 6.949 36.571 13.531 54.857 19.566v-192c0-4.315 1.715-8.455 4.767-11.507s7.192-4.767 11.507-4.767h423.131c4.315 0 8.455 1.715 11.507 4.767s4.767 7.192 4.767 11.507v190.72l54.857-18.286v-166.4c0.009-3.93 1.439-7.724 4.027-10.683 2.587-2.957 6.159-4.879 10.053-5.409 1.646 0 40.229 12.251 40.229-38.4v-6.4h31.817v6.4c0 51.931-30.354 58.149-54.857 66.926v140.251c14.369-6.257 28.089-13.914 40.96-22.857 41.691-30.354 61.257-119.406 65.463-151.406l7.68-39.863h33.097l-8.411 44.983c0 5.12-17.006 128-78.446 172.983-20.575 13.701-42.587 25.106-65.646 34.011-1.419 1.029-2.953 1.889-4.571 2.56l-13.531 4.754c-20.48 7.863-41.691 15.177-62.171 21.577l-12.617 4.389c-1.275 0.17-2.565 0.17-3.84 0-34.194 10.789-64.366 18.286-80.457 23.040v54.857c49.006 34.926 96.183 129.097 96.183 189.257v27.429c5.464-1.946 11.207-2.995 17.006-3.109 6.499 0 12.933 1.284 18.937 3.776 6.001 2.492 11.452 6.146 16.038 10.75 4.588 4.604 8.221 10.068 10.69 16.079s3.73 12.451 3.707 18.949v43.886c0.15 12.169-4.215 23.96-12.251 33.097 5.157 8.411 7.819 18.114 7.68 27.977v18.286c0.702 13.749-3.655 27.28-12.251 38.034-4.401 4.665-10.050 7.965-16.274 9.509-4.023 44.618-43.52 137.875-156.526 189.075-29.736 12.668-61.669 19.378-93.989 19.749h-9.509c-30.585 0.647-61.041-4.12-89.966-14.080-125.257-46.080-166.034-148.114-169.509-194.561-6.321-1.43-12.061-4.745-16.457-9.509-9.049-10.551-13.755-24.146-13.166-38.034v-19.383c-0.327-9.499 2.085-18.895 6.949-27.063-7.905-9.011-12.317-20.56-12.434-32.549v-44.251c0.048-13.111 5.291-25.668 14.579-34.922 9.288-9.253 21.865-14.449 34.976-14.449 5.749 0.007 11.451 1.061 16.823 3.109v-27.611c0-59.429 46.811-152.869 94.72-187.794v-54.857c-57.79-15.080-114.688-33.395-170.423-54.857-24.812-9.404-48.439-21.678-70.4-36.571-62.171-45.531-78.446-168.411-79.177-173.531l-8.411-44.8 32.549 0.183zM722.834 626.959c0.183-0.905 0.183-1.838 0-2.743v-44.251c-0.137-2.236-0.724-4.423-1.726-6.427-1.002-2.006-2.399-3.787-4.107-5.239-1.706-1.45-3.69-2.542-5.829-3.209-2.141-0.666-4.394-0.892-6.623-0.667-4.043 0.291-7.85 2.017-10.734 4.868-2.884 2.849-4.654 6.636-4.992 10.675v44.251c-0.304 4.502 1.176 8.944 4.118 12.365s7.111 5.548 11.608 5.921c2.229 0.227 4.482 0 6.623-0.667 2.139-0.666 4.123-1.757 5.829-3.209 1.708-1.452 3.105-3.233 4.107-5.237 1.002-2.006 1.589-4.191 1.726-6.429zM485.12 926.845c19.688-1.541 39.071-5.787 57.6-12.617v-82.103c-6.565-9.486-15.119-17.427-25.068-23.27-9.947-5.842-21.049-9.446-32.532-10.559v128.549zM394.971 918.616c18.734 5.454 38.095 8.466 57.6 8.96v-129.646c-11.489 1.089-22.601 4.682-32.552 10.526s-18.501 13.799-25.048 23.302v86.857zM233.691 624.216v-44.069c-0.435-4.182-2.405-8.055-5.53-10.871-3.123-2.816-7.179-4.374-11.385-4.374s-8.261 1.558-11.385 4.374c-3.125 2.816-5.094 6.689-5.53 10.871v44.069c-0.069 4.319 1.509 8.501 4.411 11.699 2.904 3.198 6.914 5.173 11.218 5.522s8.581-0.953 11.963-3.643c3.379-2.688 5.61-6.563 6.237-10.836 0.183-0.905 0.183-1.838 0-2.743zM216.869 673.587c-2.981 0.272-5.979 0.272-8.96 0-2.534 3.346-3.71 7.526-3.291 11.703v19.017c-0.21 5.151 1.126 10.247 3.84 14.629 0.72 0.187 1.474 0.187 2.194 0h6.217c4.315 0 8.455 1.715 11.507 4.767s4.767 7.192 4.767 11.507c7.144 36.279 22.426 70.464 44.692 99.983 22.265 29.519 50.937 53.603 83.856 70.44v-77.897c0.007-2.333 0.507-4.638 1.463-6.766 10.469-18.23 25.83-33.166 44.348-43.119 18.516-9.954 39.448-14.525 60.429-13.201 20.981-1.324 41.913 3.248 60.429 13.201 18.518 9.953 33.88 24.889 44.348 43.119 1.128 2.068 1.637 4.417 1.463 6.766v70.034c29.104-17.923 54.321-41.492 74.171-69.317 19.847-27.825 33.924-59.342 41.395-92.695 0-4.315 1.715-8.455 4.767-11.507s7.192-4.767 11.507-4.767h6.217c1.646 0 2.011 0 2.377 0 2.743-4.498 4.021-9.737 3.657-14.994v-19.383c0.263-2.085 0.090-4.2-0.508-6.215s-1.607-3.884-2.966-5.488c-7.835 1.503-15.92 1.053-23.541-1.306-7.621-2.361-14.546-6.559-20.162-12.226h-419.109c-4.683 4.56-10.238 8.126-16.335 10.483s-12.608 3.456-19.14 3.231h0.366zM266.057 505.907v121.051h390.766v-121.051c-2.56-100.389-105.509-209.92-190.537-209.737h-10.057c-85.029 0-181.577 90.331-190.537 209.737h0.366zM560.457 298.181v-43.154l-99.291-126.171-100.571 126.171v43.886c24.137-11.154 50.651-35.291 77.349-35.291h46.629c26.149 0 52.114 23.771 75.886 34.56zM267.886 211.69c30.903 9.509 57.417 16.64 71.314 20.297l123.063-155.611 121.783 155.611c13.897-3.657 40.96-10.789 73.143-20.663v-185.6h-390.583l1.28 185.966z" />
<glyph unicode="&#xe910;" d="M512 960c-282.653 0-512-229.347-512-512s229.347-512 512-512c282.653 0 512 229.347 512 512s-229.347 512-512 512zM512 940.308c272.011 0 492.308-220.297 492.308-492.308s-220.297-492.308-492.308-492.308c-272.011 0-492.308 220.297-492.308 492.308s220.297 492.308 492.308 492.308z" />
<glyph unicode="&#xe911;" d="M944.849 648.206c2.133 10.663-4.783 21.039-15.449 23.172l-173.789 34.757c-10.665 2.133-21.039-4.783-23.172-15.447-2.133-10.665 4.783-21.039 15.449-23.172l154.478-30.897-30.895-154.478c-2.133-10.665 4.783-21.039 15.447-23.172s21.039 4.783 23.172 15.449zM522.923 359.989l413.538 275.692-21.847 32.77-413.538-275.692z" />
<glyph unicode="&#xe912;" glyph-name="vacancies" d="M993.802 959.857h-139.991c-16.677 0-30.198-13.517-30.198-30.199s13.522-30.199 30.198-30.199h67.082l-310.326-310.326c-27.409 18.909-60.596 30.014-96.339 30.014-36.887 0-71.037-11.838-98.937-31.87l-312.182 312.182h67.083c16.678 0 30.199 13.517 30.199 30.199s-13.521 30.199-30.199 30.199h-139.993c-16.678 0-30.199-13.517-30.199-30.199v-139.989c0-16.682 13.521-30.199 30.199-30.199s30.199 13.517 30.199 30.199v67.079l312.762-312.758c-18.317-27.131-29.024-59.807-29.024-94.937 0-35.645 11.045-68.754 29.861-96.119l-313.6-313.593v67.077c0 16.681-13.521 30.198-30.199 30.198s-30.199-13.517-30.199-30.198v-139.991c0-16.681 13.521-30.198 30.199-30.198h139.989c16.678 0 30.199 13.517 30.199 30.198s-13.521 30.198-30.199 30.198h-67.083l313.366 313.364c27.679-19.519 61.389-31.027 97.753-31.027 93.789 0 170.091 76.303 170.091 170.091 0 36.27-11.449 69.9-30.871 97.538l310.155 310.153v-67.075c0-16.682 13.522-30.199 30.198-30.199s30.198 13.517 30.198 30.199v139.989c0.005 16.682-13.517 30.199-30.193 30.199zM514.228 339.363c-60.483 0-109.692 49.211-109.692 109.69 0 60.481 49.209 109.69 109.692 109.69 27.351 0 52.37-10.082 71.602-26.701 1.248-2.078 2.731-4.051 4.52-5.838 1.868-1.869 3.94-3.407 6.12-4.683 17.062-19.344 27.448-44.711 27.448-72.468 0-60.479-49.206-109.69-109.69-109.69zM993.729 136.694c-16.677 0-30.198-13.517-30.198-30.198v-67.077l-226.455 226.455c-11.796 11.786-30.915 11.786-42.706 0-11.796-11.8-11.796-30.92 0-42.711l226.455-226.455h-67.082c-16.681 0-30.203-13.517-30.203-30.198s13.522-30.198 30.203-30.198h139.986c16.681 0 30.203 13.517 30.203 30.198v139.991c0 16.677-13.522 30.193-30.203 30.193z" />
<glyph unicode="&#xe913;" glyph-name="file" horiz-adv-x="931" d="M918.743 582.508c-16.162 16.142-42.291 16.070-58.366-0.157l-496.113-500.891c-64.365-64.639-168.902-64.639-233.387 0.088-64.436 64.74-64.436 169.717 0.008 234.431l510.798 515.638c40.185 40.351 105.517 40.351 145.818-0.088 40.289-40.458 40.289-106.057-0.010-146.527l-423.149-424.922c-0.027-0.027-0.050-0.059-0.077-0.086-16.121-16.099-42.174-16.078-58.261 0.078-16.115 16.182-16.115 42.41 0 58.592l204.251 205.151c16.114 16.187 16.112 42.428-0.007 58.611s-42.25 16.18-58.365-0.006l-204.249-205.147c-48.347-48.55-48.347-127.259 0.004-175.811 48.349-48.552 126.729-48.552 175.080 0 0.056 0.056 0.101 0.116 0.155 0.173l422.984 424.759c72.534 72.839 72.534 190.918 0 263.757-72.544 72.796-190.123 72.796-262.614 0l-510.799-515.642c-96.6-97.005-96.6-254.45 0.070-351.574 96.734-97.094 253.522-97.094 350.198-0.009l496.192 500.97c16.076 16.229 16.001 42.469-0.158 58.61z" />
</font>
</defs>
</svg>
