<svg width="43" height="43" viewBox="0 0 43 43" fill="none" xmlns="http://www.w3.org/2000/svg">
<path d="M12.7895 14.3422C13.3418 14.3422 13.7895 13.8945 13.7895 13.3422L13.7895 4.34221C13.7895 3.78992 13.3418 3.34221 12.7895 3.34221C12.2372 3.34221 11.7895 3.78992 11.7895 4.34221L11.7895 12.3422L3.78947 12.3422C3.23719 12.3422 2.78947 12.7899 2.78947 13.3422C2.78947 13.8945 3.23719 14.3422 3.78947 14.3422L12.7895 14.3422ZM0.292893 2.25984L12.0824 14.0493L13.4966 12.6351L1.70711 0.845628L0.292893 2.25984Z" fill="black"/>
<path d="M12.7895 28.7633C13.3418 28.7633 13.7895 29.211 13.7895 29.7633L13.7895 38.7633C13.7895 39.3155 13.3418 39.7633 12.7895 39.7633C12.2372 39.7633 11.7895 39.3155 11.7895 38.7633L11.7895 30.7633L3.78947 30.7633C3.23719 30.7633 2.78947 30.3155 2.78947 29.7633C2.78947 29.211 3.23719 28.7633 3.78947 28.7633L12.7895 28.7633ZM0.292893 40.8456L12.0824 29.0562L13.4966 30.4704L1.70711 42.2598L0.292893 40.8456Z" fill="black"/>
<path d="M30.4732 14.3422C29.9209 14.3422 29.4732 13.8945 29.4732 13.3422L29.4732 4.34221C29.4732 3.78992 29.9209 3.34221 30.4732 3.34221C31.0255 3.34221 31.4732 3.78992 31.4732 4.34221L31.4732 12.3422L39.4732 12.3422C40.0255 12.3422 40.4732 12.7899 40.4732 13.3422C40.4732 13.8945 40.0255 14.3422 39.4732 14.3422L30.4732 14.3422ZM42.9698 2.25984L31.1803 14.0493L29.7661 12.6351L41.5556 0.845628L42.9698 2.25984Z" fill="black"/>
<path d="M30.4732 28.7633C29.9209 28.7633 29.4732 29.211 29.4732 29.7633L29.4732 38.7633C29.4732 39.3155 29.9209 39.7633 30.4732 39.7633C31.0255 39.7633 31.4732 39.3155 31.4732 38.7633L31.4732 30.7633L39.4732 30.7633C40.0255 30.7633 40.4732 30.3155 40.4732 29.7633C40.4732 29.211 40.0255 28.7633 39.4732 28.7633L30.4732 28.7633ZM42.9698 40.8456L31.1803 29.0562L29.7661 30.4704L41.5556 42.2598L42.9698 40.8456Z" fill="black"/>
</svg>
