<svg width="32" height="20" viewBox="0 0 32 20" fill="none" xmlns="http://www.w3.org/2000/svg">
<path d="M31.7915 9.38219C31.5057 8.99902 24.6954 0 15.9973 0C7.29922 0 0.488548 8.99902 0.20303 9.38183C-0.0676768 9.74534 -0.0676768 10.2384 0.20303 10.6019C0.488548 10.9851 7.29922 19.9841 15.9973 19.9841C24.6954 19.9841 31.5057 10.985 31.7915 10.6022C32.0626 10.2387 32.0626 9.74534 31.7915 9.38219ZM15.9973 17.9168C9.59024 17.9168 4.04105 11.9439 2.39837 9.99134C4.03893 8.03702 9.57649 2.06731 15.9973 2.06731C22.404 2.06731 27.9528 8.0391 29.5962 9.99275C27.9557 11.947 22.4181 17.9168 15.9973 17.9168Z" fill="#FFE600"/>
<path d="M15.9976 3.79004C12.5081 3.79004 9.66895 6.57231 9.66895 9.99203C9.66895 13.4117 12.5081 16.194 15.9976 16.194C19.4872 16.194 22.3263 13.4117 22.3263 9.99203C22.3263 6.57231 19.4872 3.79004 15.9976 3.79004ZM15.9976 14.1266C13.6711 14.1266 11.7786 12.2719 11.7786 9.99203C11.7786 7.71216 13.6712 5.85741 15.9976 5.85741C18.3241 5.85741 20.2167 7.71216 20.2167 9.99203C20.2167 12.2719 18.3241 14.1266 15.9976 14.1266Z" fill="#FFE600"/>
</svg>
