<svg width="21" height="21" viewBox="0 0 21 21" fill="none" xmlns="http://www.w3.org/2000/svg">
<path d="M20.7436 19.5063L14.7717 13.5345C15.9285 12.1056 16.625 10.29 16.625 8.3125C16.625 3.72926 12.8957 0 8.31246 0C3.72921 0 0 3.72921 0 8.31246C0 12.8957 3.72926 16.625 8.3125 16.625C10.29 16.625 12.1056 15.9285 13.5345 14.7717L19.5063 20.7436C19.677 20.9142 19.9009 21 20.125 21C20.349 21 20.573 20.9142 20.7436 20.7436C21.0857 20.4015 21.0857 19.8484 20.7436 19.5063ZM8.3125 14.8749C4.69349 14.8749 1.75001 11.9315 1.75001 8.31246C1.75001 4.69345 4.69349 1.74997 8.3125 1.74997C11.9315 1.74997 14.875 4.69345 14.875 8.31246C14.875 11.9315 11.9315 14.8749 8.3125 14.8749Z" fill="#333D54"/>
</svg>
