<svg width="44" height="41" viewBox="0 0 44 41" fill="none" xmlns="http://www.w3.org/2000/svg">
<path fill-rule="evenodd" clip-rule="evenodd" d="M38.9768 14.8366C36.594 7.67064 29.8349 2.50293 21.8687 2.50293C13.9026 2.50293 7.14341 7.67064 4.76068 14.8366H2.66406C5.1162 6.54941 12.7863 0.50293 21.8687 0.50293C30.9511 0.50293 38.6212 6.54941 41.0734 14.8366H38.9768ZM21.8937 40.5529H21.8437C21.8521 40.5529 21.8604 40.5529 21.8687 40.5529C21.8771 40.5529 21.8854 40.5529 21.8937 40.5529Z" fill="black"/>
<path fill-rule="evenodd" clip-rule="evenodd" d="M4.78299 26.0951C7.16572 33.261 13.9249 38.4287 21.891 38.4287C29.8572 38.4287 36.6164 33.261 38.9991 26.0951H41.0957C38.6436 34.3822 30.9734 40.4287 21.891 40.4287C12.8087 40.4287 5.13852 34.3822 2.68638 26.0951H4.78299ZM21.8661 0.378746H21.916C21.9077 0.378735 21.8994 0.378731 21.891 0.378731C21.8827 0.378731 21.8744 0.378735 21.8661 0.378746Z" fill="black"/>
<path d="M1.97912 6.06479C1.86685 5.52403 1.33747 5.17668 0.796721 5.28895C0.255968 5.40121 -0.0913886 5.93059 0.0208791 6.47135L1.97912 6.06479ZM2.9282 15.5555L1.94908 15.7588C2.06135 16.2996 2.59073 16.6469 3.13148 16.5347L2.9282 15.5555ZM12.6253 14.5636C13.1661 14.4513 13.5135 13.922 13.4012 13.3812C13.2889 12.8405 12.7595 12.4931 12.2188 12.6054L12.6253 14.5636ZM0.0208791 6.47135L1.94908 15.7588L3.90732 15.3523L1.97912 6.06479L0.0208791 6.47135ZM3.13148 16.5347L12.6253 14.5636L12.2188 12.6054L2.72493 14.5764L3.13148 16.5347Z" fill="black"/>
<path d="M41.7806 34.8669C41.8929 35.4076 42.4223 35.755 42.963 35.6427C43.5038 35.5304 43.8512 35.001 43.7389 34.4603L41.7806 34.8669ZM40.8316 25.3761L41.8107 25.1728C41.6984 24.6321 41.169 24.2847 40.6283 24.397L40.8316 25.3761ZM31.1344 26.368C30.5937 26.4803 30.2463 27.0097 30.3586 27.5504C30.4708 28.0912 31.0002 28.4385 31.541 28.3263L31.1344 26.368ZM43.7389 34.4603L41.8107 25.1728L39.8524 25.5794L41.7806 34.8669L43.7389 34.4603ZM40.6283 24.397L31.1344 26.368L31.541 28.3263L41.0348 26.3552L40.6283 24.397Z" fill="black"/>
</svg>
