<svg width="11" height="11" viewBox="0 0 11 11" fill="none" xmlns="http://www.w3.org/2000/svg">
<path d="M10.1316 7.24264C9.46137 7.24394 8.79527 7.13799 8.15852 6.92884C7.86079 6.82487 7.52998 6.89492 7.29995 7.11064L6.05059 8.05317C4.70885 7.37952 3.62018 6.29106 2.94628 4.94943L3.86391 3.73017C4.09559 3.49833 4.17844 3.15658 4.07871 2.84438C3.86876 2.20677 3.76225 1.53968 3.76317 0.868422C3.76317 0.388809 3.37436 0 2.89475 0H0.868422C0.388809 0 0 0.388809 0 0.868422C0.00637747 6.4613 4.5387 10.9936 10.1316 11C10.6112 11 11 10.6112 11 10.1316V8.11106C11 7.63145 10.6112 7.24264 10.1316 7.24264Z" fill="#FFE600"/>
</svg>
