<svg width="12" height="15" viewBox="0 0 12 15" fill="none" xmlns="http://www.w3.org/2000/svg">
<path fill-rule="evenodd" clip-rule="evenodd" d="M5.81579 14.7333C5.81579 14.7333 11.6316 9.02776 11.6316 5.81579C11.6316 2.60382 9.02776 0 5.81579 0C2.60382 0 0 2.60382 0 5.81579C0 9.02776 5.81579 14.7333 5.81579 14.7333ZM7.30409 3.11502C6.44098 2.6258 5.38435 2.6258 4.52124 3.11502C3.66601 3.61789 3.1377 4.53295 3.12981 5.52504C3.1377 6.51713 3.66601 7.43219 4.52124 7.93506C5.38435 8.42428 6.44098 8.42428 7.30409 7.93506C8.15932 7.43219 8.68763 6.51713 8.69552 5.52504C8.68763 4.53295 8.15932 3.61789 7.30409 3.11502Z" fill="#333D54"/>
</svg>
