<svg width="117" height="476" fill="none" xmlns="http://www.w3.org/2000/svg"><mask id="mask0" maskUnits="userSpaceOnUse" x="0" y="0" width="117" height="476"><path fill="#FDFDFD" d="M0 0h117v476H0z"/></mask><g mask="url(#mask0)" fill="#ECECEC"><path d="M129.062 296.515a9.002 9.002 0 018.876 0l8.83 5.005 8.748 5.144a9 9 0 014.438 7.687l.081 10.149-.081 10.149a9 9 0 01-4.438 7.687l-8.748 5.144-8.83 5.005a9.002 9.002 0 01-8.876 0l-8.829-5.005-8.749-5.144a9 9 0 01-4.438-7.687l-.081-10.149.081-10.149a9 9 0 014.438-7.687l8.749-5.144 8.829-5.005zm0-210a9 9 0 018.876 0l8.83 5.005 8.748 5.144a9 9 0 014.438 7.687l.081 10.149-.081 10.149a9 9 0 01-4.438 7.687l-8.748 5.144-8.83 5.005a9.002 9.002 0 01-8.876 0l-8.829-5.005-8.749-5.144a9 9 0 01-4.438-7.687l-.081-10.149.081-10.149a9 9 0 014.438-7.687l8.749-5.144 8.829-5.005zm0-105a9 9 0 018.876 0l8.83 5.005 8.748 5.144a9 9 0 014.438 7.687l.081 10.149-.081 10.149a9 9 0 01-4.438 7.687l-8.748 5.144-8.83 5.005a9 9 0 01-8.876 0l-8.829-5.005-8.749-5.144a9 9 0 01-4.438-7.687L106.965 9.5l.081-10.149a9 9 0 014.438-7.687l8.749-5.144 8.829-5.005zm0 420a9.002 9.002 0 018.876 0l8.83 5.005 8.748 5.144a9 9 0 014.438 7.687l.081 10.149-.081 10.149a9 9 0 01-4.438 7.687l-8.748 5.144-8.83 5.005a9.002 9.002 0 01-8.876 0l-8.829-5.005-8.749-5.144a9 9 0 01-4.438-7.687l-.081-10.149.081-10.149a9 9 0 014.438-7.687l8.749-5.144 8.829-5.005zm0-210a9.002 9.002 0 018.876 0l8.83 5.005 8.748 5.144a9 9 0 014.438 7.687l.081 10.149-.081 10.149a9 9 0 01-4.438 7.687l-8.748 5.144-8.83 5.005a9.002 9.002 0 01-8.876 0l-8.829-5.005-8.749-5.144a9 9 0 01-4.438-7.687l-.081-10.149.081-10.149a9 9 0 014.438-7.687l8.749-5.144 8.829-5.005zm-122 105a9.002 9.002 0 018.876 0l8.83 5.005 8.748 5.144a9 9 0 014.438 7.687l.081 10.149-.08 10.149a9 9 0 01-4.439 7.687l-8.748 5.144-8.83 5.005a9.002 9.002 0 01-8.876 0l-8.83-5.005-8.748-5.144a9 9 0 01-4.438-7.687l-.081-10.149.08-10.149a9 9 0 014.439-7.687l8.748-5.144 8.83-5.005zm0-210a9 9 0 018.876 0l8.83 5.005 8.748 5.144a9 9 0 014.438 7.687l.081 10.149-.08 10.149a9 9 0 01-4.439 7.687l-8.748 5.144-8.83 5.005a9.002 9.002 0 01-8.876 0l-8.83-5.005-8.748-5.144a9 9 0 01-4.438-7.687l-.081-10.149.08-10.149a9 9 0 014.439-7.687l8.748-5.144 8.83-5.005zm0-105a9 9 0 018.876 0l8.83 5.005 8.748 5.144a9 9 0 014.438 7.687L38.035 9.5l-.08 10.149a9 9 0 01-4.439 7.687l-8.748 5.144-8.83 5.005a9 9 0 01-8.876 0l-8.83-5.005-8.748-5.144a9 9 0 01-4.438-7.687L-15.035 9.5l.08-10.149a9 9 0 014.439-7.687l8.748-5.144 8.83-5.005zm0 420a9.002 9.002 0 018.876 0l8.83 5.005 8.748 5.144a9 9 0 014.438 7.687l.081 10.149-.08 10.149a9 9 0 01-4.439 7.687l-8.748 5.144-8.83 5.005a9.002 9.002 0 01-8.876 0l-8.83-5.005-8.748-5.144a9 9 0 01-4.438-7.687l-.081-10.149.08-10.149a9 9 0 014.439-7.687l8.748-5.144 8.83-5.005zm0-210a9.002 9.002 0 018.876 0l8.83 5.005 8.748 5.144a9 9 0 014.438 7.687l.081 10.149-.08 10.149a9 9 0 01-4.439 7.687l-8.748 5.144-8.83 5.005a9.002 9.002 0 01-8.876 0l-8.83-5.005-8.748-5.144a9 9 0 01-4.438-7.687l-.081-10.149.08-10.149a9 9 0 014.439-7.687l8.748-5.144 8.83-5.005zm30 157a9.002 9.002 0 018.876 0l8.83 5.005 8.748 5.144a9 9 0 014.438 7.687l.081 10.149-.08 10.149a9 9 0 01-4.439 7.687l-8.748 5.144-8.83 5.005a9.002 9.002 0 01-8.876 0l-8.83-5.005-8.748-5.144a9 9 0 01-4.438-7.687l-.081-10.149.08-10.149a9 9 0 014.439-7.687l8.748-5.144 8.83-5.005zm0-210a9.002 9.002 0 018.876 0l8.83 5.005 8.748 5.144a9 9 0 014.438 7.687l.081 10.149-.08 10.149a9 9 0 01-4.439 7.687l-8.748 5.144-8.83 5.005a9.002 9.002 0 01-8.876 0l-8.83-5.005-8.748-5.144a9 9 0 01-4.438-7.687l-.081-10.149.08-10.149a9 9 0 014.439-7.687l8.748-5.144 8.83-5.005zm0-105a9 9 0 018.876 0l8.83 5.005 8.748 5.144a9 9 0 014.438 7.687l.081 10.149-.08 10.149a9 9 0 01-4.439 7.687l-8.748 5.144-8.83 5.005a9 9 0 01-8.876 0l-8.83-5.005-8.748-5.144a9 9 0 01-4.438-7.687L14.965 61.5l.08-10.149a9 9 0 014.439-7.687l8.748-5.144 8.83-5.005zm0 420a9.002 9.002 0 018.876 0l8.83 5.005 8.748 5.144a9 9 0 014.438 7.687l.081 10.149-.08 10.149a9 9 0 01-4.439 7.687l-8.748 5.144-8.83 5.005a9.002 9.002 0 01-8.876 0l-8.83-5.005-8.748-5.144a9 9 0 01-4.438-7.687l-.081-10.149.08-10.149a9 9 0 014.439-7.687l8.748-5.144 8.83-5.005zm0-210a9.002 9.002 0 018.876 0l8.83 5.005 8.748 5.144a9 9 0 014.438 7.687l.081 10.149-.08 10.149a9 9 0 01-4.439 7.687l-8.748 5.144-8.83 5.005a9.002 9.002 0 01-8.876 0l-8.83-5.005-8.748-5.144a9 9 0 01-4.438-7.687l-.081-10.149.08-10.149a9 9 0 014.439-7.687l8.748-5.144 8.83-5.005zm-61 105a9.002 9.002 0 018.876 0l8.83 5.005 8.748 5.144a9 9 0 014.438 7.687l.081 10.149-.08 10.149a9.001 9.001 0 01-4.439 7.687l-8.748 5.144-8.83 5.005a9.002 9.002 0 01-8.876 0l-8.83-5.005-8.748-5.144a9 9 0 01-4.438-7.687l-.081-10.149.08-10.149a9 9 0 014.439-7.687l8.748-5.144 8.83-5.005zm0-210a9.002 9.002 0 018.876 0l8.83 5.005 8.748 5.144a9 9 0 014.438 7.687l.081 10.149-.08 10.149a9.001 9.001 0 01-4.439 7.687l-8.748 5.144-8.83 5.005a9.002 9.002 0 01-8.876 0l-8.83-5.005-8.748-5.144a9 9 0 01-4.438-7.687l-.081-10.149.08-10.149a9 9 0 014.439-7.687l8.748-5.144 8.83-5.005zm0-105a9 9 0 018.876 0l8.83 5.005 8.748 5.144a9 9 0 014.438 7.687L7.035 61.5l-.08 10.149a9 9 0 01-4.439 7.687l-8.748 5.144-8.83 5.005a9 9 0 01-8.876 0l-8.83-5.005-8.748-5.144a9 9 0 01-4.438-7.687l-.081-10.149.08-10.149a9 9 0 014.439-7.687l8.748-5.144 8.83-5.005zm0 420a9.002 9.002 0 018.876 0l8.83 5.005 8.748 5.144a9 9 0 014.438 7.687l.081 10.149-.08 10.149a9.001 9.001 0 01-4.439 7.687l-8.748 5.144-8.83 5.005a9.002 9.002 0 01-8.876 0l-8.83-5.005-8.748-5.144a9 9 0 01-4.438-7.687l-.081-10.149.08-10.149a9 9 0 014.439-7.687l8.748-5.144 8.83-5.005zm0-210a9.002 9.002 0 018.876 0l8.83 5.005 8.748 5.144a9 9 0 014.438 7.687l.081 10.149-.08 10.149a9.001 9.001 0 01-4.439 7.687l-8.748 5.144-8.83 5.005a9.002 9.002 0 01-8.876 0l-8.83-5.005-8.748-5.144a9 9 0 01-4.438-7.687l-.081-10.149.08-10.149a9 9 0 014.439-7.687l8.748-5.144 8.83-5.005zm92 53a9.002 9.002 0 018.876 0l8.83 5.005 8.748 5.144a9 9 0 014.438 7.687l.081 10.149-.08 10.149a9 9 0 01-4.439 7.687l-8.749 5.144-8.83 5.005a9.002 9.002 0 01-8.875 0l-8.83-5.005-8.748-5.144a9 9 0 01-4.438-7.687l-.081-10.149.08-10.149a9 9 0 014.439-7.687l8.748-5.144 8.83-5.005zm0-210a9 9 0 018.876 0l8.83 5.005 8.748 5.144a9 9 0 014.438 7.687l.081 10.149-.08 10.149a9 9 0 01-4.439 7.687l-8.749 5.144-8.83 5.005a9.002 9.002 0 01-8.875 0l-8.83-5.005-8.748-5.144a9 9 0 01-4.438-7.687l-.081-10.149.08-10.149a9 9 0 014.439-7.687l8.748-5.144 8.83-5.005zm0-105a9 9 0 018.876 0l8.83 5.005 8.748 5.144a9 9 0 014.438 7.687L99.035 9.5l-.08 10.149a9 9 0 01-4.439 7.687l-8.749 5.144-8.83 5.005a9 9 0 01-8.875 0l-8.83-5.005-8.748-5.144a9 9 0 01-4.438-7.687L45.965 9.5l.08-10.149a9 9 0 014.439-7.687l8.748-5.144 8.83-5.005zm0 420a9.002 9.002 0 018.876 0l8.83 5.005 8.748 5.144a9 9 0 014.438 7.687l.081 10.149-.08 10.149a9 9 0 01-4.439 7.687l-8.749 5.144-8.83 5.005a9.002 9.002 0 01-8.875 0l-8.83-5.005-8.748-5.144a9 9 0 01-4.438-7.687l-.081-10.149.08-10.149a9 9 0 014.439-7.687l8.748-5.144 8.83-5.005zm0-210a9.002 9.002 0 018.876 0l8.83 5.005 8.748 5.144a9 9 0 014.438 7.687l.081 10.149-.08 10.149a9 9 0 01-4.439 7.687l-8.749 5.144-8.83 5.005a9.002 9.002 0 01-8.875 0l-8.83-5.005-8.748-5.144a9 9 0 01-4.438-7.687l-.081-10.149.08-10.149a9 9 0 014.439-7.687l8.748-5.144 8.83-5.005zm30 157a9.002 9.002 0 018.876 0l8.83 5.005 8.748 5.144a9 9 0 014.438 7.687l.081 10.149-.081 10.149a9 9 0 01-4.438 7.687l-8.748 5.144-8.83 5.005a9.002 9.002 0 01-8.876 0l-8.83-5.005-8.748-5.144a9 9 0 01-4.438-7.687l-.081-10.149.08-10.149a9 9 0 014.439-7.687l8.749-5.144 8.83-5.005zm0-210a9.002 9.002 0 018.876 0l8.83 5.005 8.748 5.144a9 9 0 014.438 7.687l.081 10.149-.081 10.149a9 9 0 01-4.438 7.687l-8.748 5.144-8.83 5.005a9.002 9.002 0 01-8.876 0l-8.83-5.005-8.748-5.144a9 9 0 01-4.438-7.687l-.081-10.149.08-10.149a9 9 0 014.439-7.687l8.749-5.144 8.83-5.005zm0-105a9 9 0 018.876 0l8.83 5.005 8.748 5.144a9 9 0 014.438 7.687l.081 10.149-.081 10.149a9 9 0 01-4.438 7.687l-8.748 5.144-8.83 5.005a9 9 0 01-8.876 0l-8.83-5.005-8.748-5.144a9 9 0 01-4.438-7.687L75.965 61.5l.08-10.149a9 9 0 014.439-7.687l8.749-5.144 8.83-5.005zm0 420a9.002 9.002 0 018.876 0l8.83 5.005 8.748 5.144a9 9 0 014.438 7.687l.081 10.149-.081 10.149a9 9 0 01-4.438 7.687l-8.748 5.144-8.83 5.005a9.002 9.002 0 01-8.876 0l-8.83-5.005-8.748-5.144a9 9 0 01-4.438-7.687l-.081-10.149.08-10.149a9 9 0 014.439-7.687l8.749-5.144 8.83-5.005zm0-210a9.002 9.002 0 018.876 0l8.83 5.005 8.748 5.144a9 9 0 014.438 7.687l.081 10.149-.081 10.149a9 9 0 01-4.438 7.687l-8.748 5.144-8.83 5.005a9.002 9.002 0 01-8.876 0l-8.83-5.005-8.748-5.144a9 9 0 01-4.438-7.687l-.081-10.149.08-10.149a9 9 0 014.439-7.687l8.749-5.144 8.83-5.005z"/></g></svg>